P3
8 8
255
57 57 47
73 52 41
93 47 35
116 44 32
139 44 32
162 47 35
182 52 41
198 57 47
52 73 41
68 68 32
89 63 24
114 60 20
141 60 20
166 63 24
187 68 32
203 73 41
47 93 35
63 89 24
85 85 15
113 83 9
142 83 9
170 85 15
192 89 24
208 93 35
44 116 32
60 114 20
83 113 9
112 112 2
143 112 2
172 113 9
195 114 20
211 116 32
44 139 32
60 141 20
83 142 9
112 143 2
143 143 2
172 142 9
195 141 20
211 139 32
47 162 35
63 166 24
85 170 15
113 172 9
142 172 9
170 170 15
192 166 24
208 162 35
52 182 41
68 187 32
89 192 24
114 195 20
141 195 20
166 192 24
187 187 32
203 182 41
57 198 47
73 203 41
93 208 35
116 211 32
139 211 32
162 208 35
182 203 41
198 198 47
